<svg xmlns="http://www.w3.org/2000/svg" height="500" width="500" xmlns:v="https://vecta.io/nano"><path d="M453.898 196.496l-.561 8.901c-3.367 34.259-19.86 67.845-54.232 98.513-125.704 112.09-247.966 54.344-268.35 39.047 19.599-62.124 35.195-98.85 82.169-118.673l13.839-5.049c24.199-7.704 55.615-12.005 97.616-13.763 23.039-.973 44.469-14.176 62.197-30.931 7.78-7.405 14.849-15.447 21.02-23.488 2.731-3.553 5.46-6.583 8.116-9.051 15.072-13.988 28.461-10.173 34.333 15.857 2.917 12.865 4.264 25.807 3.853 38.636" fill="#672e23"/><path d="M130.818 343.003l-.004-.003" fill="#b39585"/><path d="M235.766 371.434c-42.82-.003-76.833-12.725-94.546-22.083h0c-4.164-2.201-7.433-4.217-9.7-5.836-.016-.011-.021-.015-.028-.02s-.019-.013-.027-.02l-.58-.423-.067-.049-.063-.047c19.599-62.124 35.195-98.85 82.169-118.673h0l13.839-5.049h0 0c.032-.009.063-.02.095-.029l.039-.012.081-.027.053-.016c.011-.004.024-.008.036-.012l.084-.027c.016-.005.032-.009.048-.015l.048-.016.067-.02a.79.79 0 0 0 .052-.017l.08-.024c9.668-3.035 20.484-5.523 32.627-7.537-26.937 29.291-24.561 76.577-5.105 109.662 12.028 20.453 29.644 33.728 49.444 39.161-24.427 8.057-47.596 11.129-68.645 11.128" fill="#422524"/><path d="M226.763 219.234l-13.839 5.049c4.339-1.832 8.939-3.515 13.839-5.049m172.342-98.737c0 4.151-.523 8.079-1.571 11.744-.075.299-.187.597-.224.859-12.941 43.423-93.988 52.773-157.869 62.124-37.139 5.423-67.022 25.844-89.388 53.52-19.597 24.161-33.436 53.932-41.365 84.04 0 0-28.873 12.268-50.94-30.593a76.99 76.99 0 0 1-2.917-12.717C34.972 153.372 377.339-.907 399.105 120.497" fill="#672e23"/><path d="M54.817 289.374l-.003-.027c0 .009.001.019.003.027m-.017-.124l-.001-.008.001.008m-.013-.097l-.005-.031.005.031m-.019-.124h0m-.013-.097l-.004-.036c0 .009.003.027.004.036m-.016-.123l-.004-.028.004.028m-.015-.1l-.004-.037c0 .008.003.029.004.037m-.016-.12l-.004-.037.004.037m-.013-.101l-.005-.043.005.043m-.015-.115l-.008-.052.008.052m-.015-.105l-.005-.048.005.048m-.015-.112l-.007-.061.007.061m-.013-.112l-.007-.049.007.049m-.013-.108l-.009-.069c.001.016.007.053.009.069m-.015-.113l-.007-.052.007.052m-.013-.103l-.009-.079.009.079m-.015-.12l-.007-.056.007.056m-.011-.087l-.012-.104.012.104m-.015-.132l-.024-.2.024.2m-.027-.22l-.024-.207.024.207m-.025-.221l-.024-.213.024.213m-.024-.22l-.024-.22.024.22m-.024-.221c-5.351-49.877 37.112-101.904 93.95-141.689-56.846 39.787-99.303 91.805-93.95 141.688m94.013-141.733c.016-.011.024-.016.04-.028l-.04.028m.148-.103c.005-.004.016-.011.021-.015-.009.007-.012.008-.021.015" fill="#d3c3b7"/><path d="M98.931 334.41c-.072 0-.144-.001-.216-.001-10.379-.069-27.031-5.151-40.967-32.219h0a76.99 76.99 0 0 1-2.917-12.717h0a1.69 1.69 0 0 0-.015-.099c-.001-.008-.003-.017-.003-.027-.005-.032-.011-.064-.015-.097l-.001-.008-.012-.089-.005-.031-.013-.093-.001-.016-.012-.081c-.001-.009-.004-.027-.004-.036l-.012-.087c-.001-.008-.003-.019-.004-.028l-.011-.072c-.001-.008-.004-.029-.004-.037l-.012-.083c-.003-.017-.003-.02-.004-.037l-.009-.064-.005-.043c-.004-.023-.007-.048-.009-.072l-.008-.052c-.001-.02-.004-.035-.007-.053s-.004-.032-.005-.048c-.004-.024-.005-.04-.009-.064-.001-.016-.005-.044-.007-.061s-.005-.032-.007-.051a.64.64 0 0 0-.007-.049l-.007-.059c-.003-.016-.008-.053-.009-.069s-.004-.029-.005-.044-.005-.036-.007-.052a.58.58 0 0 0-.007-.051l-.009-.079a.46.46 0 0 0-.005-.041.8.8 0 0 0-.007-.056l-.004-.031-.012-.104c-.001-.009-.003-.019-.003-.028l-.024-.2c0-.005-.001-.016-.003-.02l-.024-.207-.025-.228v-.007l-.024-.22v-.001c-5.354-49.883 37.104-101.901 93.95-141.689l.063-.044.04-.028.108-.075c.009-.007.012-.008.021-.015 29.315-20.487 62.44-37.72 94.793-49.727 5.079-.033 10.285-1.219 15.188-3.489 10.159-4.704 24.543-7.911 38.024-7.911 7.809 0 15.316 1.076 21.524 3.559 9.383 3.753 18.388 12.38 24.371 20.319.727.964 1.591 2.879 2.159 3.152-1.239 3.417-4.137 6.928-5.928 9.265-16.235 21.185-41.837 35.773-66.116 45.471-22.899 9.145-47.577 14.027-60.431 36.969-24.456 9.249-44.98 25.475-61.476 45.637l-.003.003-.057.072-.061.073-.017.021c-.015.019-.028.036-.044.053-.005.007-.008.012-.013.017s-.012.015-.017.023c-.011.012-.021.025-.031.037l-.029.035-.027.035-.008.008-.035.043c-.008.009-.019.024-.027.033s-.015.019-.023.028l-.019.023a.37.37 0 0 1-.024.029c-.013.016-.025.032-.039.048l-.024.029-.001.001v.001l-.04.049-.025.029c-.008.011-.013.019-.021.028s-.013.016-.019.023-.017.021-.024.029l-.064.079h0c-19.597 24.161-33.436 53.932-41.365 84.04 0 0-3.827 1.625-9.756 1.627h-.001" fill="#512825"/><path d="M453.337 205.397C453.973 312.998 317.572 416 202.079 416 86.622 416 60.291 348.004 54.831 289.472c0 0 .009.085 0 0a77.17 77.17 0 0 0 2.917 12.717c22.067 42.861 50.94 30.593 50.94 30.593 0 17.392 22.067 35.456 22.067 10.173 20.384 15.297 142.646 73.044 268.35-39.047 34.372-30.668 50.865-64.255 54.232-98.513" fill="#4c2526"/><path d="M202.192 416h.029-.029m.259 0h.027-.027m.401-.001h.003-.003m.129-.001h.001" fill="#aa8b7a"/><path d="M141.219 349.352c-4.251-2.247-7.567-4.301-9.839-5.936l.081.057.003.001c.008.007.017.013.027.02s.012.009.019.013c2.276 1.627 5.541 3.64 9.709 5.843" fill="#3c2323"/><path d="M141.219 349.351c-4.168-2.203-7.433-4.216-9.7-5.836 2.267 1.619 5.536 3.635 9.7 5.836h0m-9.709-5.843c-.007-.004-.012-.008-.019-.013.007.005.012.009.019.013m-.045-.033l-.003-.001" fill="#251c1c"/><g fill="#8e6751"><path d="M98.931 334.41l-.216-.001.216.001"/><path d="M98.933 334.41c5.895-.001 9.711-1.608 9.756-1.627-.045.019-3.86 1.625-9.756 1.627"/></g><path d="M202.079 416C86.622 416 60.291 348.004 54.831 289.473c0 0 .009.057 0 0a77.17 77.17 0 0 0 2.917 12.717c13.937 27.071 30.588 32.151 40.967 32.219l.216.001h0 0 .001c5.896-.001 9.711-1.608 9.756-1.627h0 0 0 0 0 0c0 11.179 9.117 22.636 15.631 22.68h.039 0 0 .003c3.6-.001 6.395-3.508 6.395-12.507h0l.597.44c.015.009.021.015.028.02 2.272 1.635 5.588 3.689 9.839 5.936-3.521 11.305-.372 23.891 13.709 30.627 26.157 12.512 53.912 18.169 81.892 18.169 33.044 0 66.4-7.892 97.798-21.7-41.099 24.357-87.829 39.345-131.636 39.549h-.001l-.127.001h-.003-.123-.015-.113-.009l-.115.001h-.027-.104-.268" fill="#2b1e1f"/><path d="M415.712 142.002c-2.656 2.468-5.385 5.497-8.116 9.051-6.171 8.041-13.24 16.083-21.02 23.488-17.728 16.755-39.159 29.957-62.197 30.931-42.001 1.757-73.417 6.059-97.616 13.763-4.9 1.535-9.5 3.217-13.839 5.049-46.975 19.823-62.571 56.549-82.169 118.673 0 25.283-22.067 7.219-22.067-10.173 7.929-30.108 21.768-59.879 41.365-84.04 22.365-27.676 52.249-48.097 89.388-53.52 63.881-9.351 144.928-18.701 157.869-62.124-4.001 14.025 4.825 18.44 18.401 8.903" fill="#3e2225"/><path d="M124.358 355.463h-.039.039" fill="#1b1717"/><path d="M124.36 355.463c3.6-.003 6.395-3.511 6.395-12.507 0 8.999-2.795 12.505-6.395 12.507" fill="#744534"/><path d="M150.054 248.743l.064-.079-.064.079" fill="#2b1e1e"/><path d="M150.144 248.633l.016-.02.001-.003-.017.023" fill="#3b2322"/><g fill="#2b1e1e"><path d="M150.16 248.613c.008-.009.013-.017.021-.028l-.02.025-.001.003"/><path d="M150.207 248.555l.04-.049c-.015.016-.027.032-.04.049"/><path d="M150.272 248.474l.039-.048-.039.048"/></g><path d="M150.335 248.397l.019-.023c-.001.003-.012.015-.019.023" fill="#3b2322"/><path d="M150.354 248.374l.023-.028-.017.021m.043-.054l.035-.043-.035.043m.069-.086l.029-.035-.029.035m.078-.094c.005-.005.008-.011.013-.017l-.013.017m.057-.071l.017-.021c-.005.007-.011.015-.017.021" fill="#2b1e1e"/><path d="M403.212 147.081c-1.877 0-3.427-.531-4.576-1.552 1.163 1.012 2.713 1.543 4.595 1.543 3.283 0 7.569-1.62 12.481-5.069-4.919 3.455-9.212 5.079-12.5 5.079" fill="#a58677"/><path d="M124.358 355.463h0-.039c-6.513-.047-15.631-11.503-15.631-22.68h0c7.929-30.108 21.768-59.879 41.365-84.04h0l.064-.079c.009-.011.017-.021.027-.032l.037-.048.025-.029c.013-.017.025-.033.04-.049.009-.012.016-.021.025-.032.013-.017.025-.031.039-.048.008-.009.016-.02.024-.029.013-.017.028-.033.041-.051l.027-.033.035-.043.035-.043c.009-.012.019-.023.029-.035s.025-.032.039-.049a.69.69 0 0 0 .023-.028 1.03 1.03 0 0 0 .044-.053c.007-.007.012-.015.017-.021l.053-.064.065-.081.003-.003c21.28-26.009 49.284-45.436 83.762-51.816 1.241 1.017 2.849 1.697 4.825 1.825 5.184.332 10.504.504 15.933.504 50.573-.001 109.89-14.897 143.369-52.877 1.149 1.021 2.699 1.552 4.576 1.552 3.288 0 7.581-1.624 12.5-5.079h0c-2.656 2.468-5.385 5.497-8.116 9.051-6.171 8.041-13.24 16.083-21.02 23.488-17.728 16.755-39.159 29.957-62.197 30.931-41.599 1.74-72.814 5.976-96.918 13.543l-.095.029a.79.79 0 0 1-.052.017l-.067.02-.048.016c-.015.004-.033.011-.048.015l-.084.027-.036.012-.053.016c-.027.009-.055.017-.081.027l-.039.012-.095.029h0 0c-4.9 1.535-9.5 3.217-13.839 5.049h0c-46.975 19.823-62.571 56.549-82.169 118.673h0 0 0c0 8.996-2.795 12.504-6.395 12.507h0" fill="#221b1b"/><path d="M363.313 331.534c10.843-7.128 21.781-15.396 32.756-24.948h0c-10.975 9.552-21.904 17.815-32.748 24.944" fill="#fff"/><path d="M355.047 335.991l6.201-4.088c2.017-1.275 4.444-2.892 7.1-5.003 2.676-2.075 5.855-4.247 8.996-7.127l5.045-4.352c1.743-1.523 3.395-3.291 5.193-5.012 3.665-3.383 7.125-7.44 10.885-11.576 1.868-2.08 3.556-4.407 5.411-6.665l2.768-3.461 2.596-3.699c3.636-4.879 6.868-10.279 10.272-15.747 3.065-5.665 6.156-11.145 8.596-16.717l1.931-4.084 1.637-4.116c1.047-2.728 2.235-5.345 3.12-7.995 1.736-5.309 3.548-10.32 4.683-15.173.608-2.413 1.332-4.72 1.799-6.985l1.305-6.531c.963-4.148 1.296-7.981 1.795-11.329.539-3.348.764-6.255.892-8.637l.549-7.409.195 7.435c.095 2.401.127 5.339-.141 8.741-.227 3.4-.275 7.311-.963 11.561l-.903 6.704c-.336 2.329-.935 4.705-1.427 7.193-.899 5.005-2.508 10.187-4.092 15.679-.809 2.74-1.933 5.449-2.931 8.271l-1.575 4.255-1.889 4.22c-2.401 5.751-5.519 11.397-8.68 17.193-3.501 5.597-6.895 11.081-10.727 15.995l-2.749 3.715-2.932 3.46c-1.968 2.253-3.775 4.561-5.763 6.611l-5.176 5.269c-10.975 9.552-21.913 17.82-32.756 24.948l-1.727.924-6.54 3.533" fill="#9c632e"/><path d="M363.321 331.53c10.844-7.129 21.773-15.392 32.748-24.944-2.151 2.149-4.279 4.18-6.464 5.993-1.924 1.651-3.695 3.34-5.555 4.78l-5.384 4.088c-3.355 2.695-6.725 4.669-9.567 6.552a71.21 71.21 0 0 1-5.779 3.531" fill="#90521c"/><path d="M306.471 179.893l5.063-1.199 13.737-3.409c11.424-3.085 27.519-7.557 41.885-18.016 7.108-5.215 12.941-11.425 16.74-17.987 3.828-6.557 5.74-13.333 6.351-19.111.277-2.896.284-5.549.092-7.875a41.1 41.1 0 0 0-.957-5.928c-.423-1.601-.788-2.847-1.116-3.663l-.448-1.271.639 1.185c.449.768.995 1.953 1.643 3.521a38.02 38.02 0 0 1 1.747 5.937c.481 2.377.784 5.143.795 8.22-.035 6.136-1.459 13.56-5.22 20.909-3.736 7.365-9.873 14.313-17.48 19.869-7.639 5.535-15.872 9.233-23.523 11.679-7.661 2.465-14.737 3.836-20.671 4.793-5.948.899-10.768 1.435-14.1 1.8l-5.176.543" fill="#9c632e"/><path d="M345.516 278.245c-7.403 0-14.676-2.205-20.187-7.085-9.399-8.324-10.891-25.103-1.26-33.157 10.899-9.115 27.081-7.227 39.16-13.54 10.192-5.328 18.125-24.721 30.747-24.721a12.92 12.92 0 0 1 3.023.365c5.872 1.407 9.511 7.763 9.64 13.8s-2.479 11.776-5.332 17.099a160.29 160.29 0 0 1-12.455 19.66c-7.471 10.089-16.489 19.551-28.047 24.455-4.781 2.029-10.067 3.125-15.289 3.125" fill="#7c341d"/></svg>